<?xml version="1.0" encoding="UTF-8" standalone="no"?>
<!DOCTYPE svg PUBLIC "-//W3C//DTD SVG 1.1//EN" "http://www.w3.org/Graphics/SVG/1.1/DTD/svg11.dtd">
<svg width="100%" height="100%" viewBox="0 0 1200 1275" version="1.1" xmlns="http://www.w3.org/2000/svg" xmlns:xlink="http://www.w3.org/1999/xlink" xml:space="preserve" xmlns:serif="http://www.serif.com/" style="fill-rule:evenodd;clip-rule:evenodd;stroke-linejoin:round;stroke-miterlimit:2;">
    <g id="transparent-background" transform="matrix(1.2,0,0,1.2741,0,0)">
        <rect x="0" y="0" width="1000" height="1000" style="fill:white;fill-opacity:0;"/>
        <g id="dragon" transform="matrix(-0.312257,2.99536e-17,-3.46945e-17,-0.277896,982.441,848.783)">
            <path d="M1545.01,435.041L1770.38,899.028L1650.93,855.619L1702.91,1027.59L1933.58,1158.92L2274.65,570.172L2647.76,1042.12L2879.38,1801.39L2657.87,2548.54L2547.45,2167.23L2287.81,2012.58L2255.93,1695.39L1996.13,1585.81L1912.83,1318.01L1765.2,1282.88L1725.89,1507.8L1688.01,1606.73L1745.19,1651.45L1796.13,1781.38L1766.45,1888.55L1754.69,2000.84L1764.72,2058.85L1746.9,2113.59L1749.85,2136.67L1729.23,2179.72L1718.02,2132.93L1695.64,2192.82L1686.19,2129.2L1665.57,2172.25L1654.36,2125.46L1662.02,2103.63L1655.97,2046.09L1677.77,1991.81L1689.53,1879.53L1667.86,1842.88L1639.13,1873.61L1545.01,2771.89C1545.01,2771.89 1450.89,1873.61 1450.89,1873.61L1422.16,1842.88L1400.49,1879.53L1412.26,1991.81L1434.06,2046.09L1428,2103.63L1435.66,2125.46L1424.45,2172.25L1403.83,2129.2L1394.39,2192.82L1372,2132.93L1360.79,2179.72L1340.17,2136.67L1343.12,2113.59L1325.3,2058.85L1335.34,2000.84L1323.57,1888.55L1293.9,1781.38L1344.84,1651.45L1402.02,1606.73L1364.13,1507.8L1324.82,1282.88L1177.2,1318.01L1093.89,1585.81L834.093,1695.39L802.211,2012.58L542.571,2167.23L432.159,2548.54L210.642,1801.39L442.263,1042.12L815.372,570.172L1156.44,1158.92L1387.11,1027.59L1439.1,855.619L1319.65,899.028C1319.65,899.028 1545.01,435.041 1545.01,435.041Z" style="fill:white;"/>
        </g>
        <g id="text" transform="matrix(0.833333,0,0,0.784868,-238.926,51.2232)">
            <g transform="matrix(267.438,0,0,267.438,358.635,1104.75)">
                <rect x="0.105" y="-0.72" width="0.068" height="0.72" style="fill:white;fill-rule:nonzero;"/>
            </g>
            <g transform="matrix(267.438,0,0,267.438,432.938,1104.75)">
                <path d="M0.127,-0.52L0.127,-0.431C0.142,-0.455 0.157,-0.474 0.174,-0.49C0.19,-0.506 0.208,-0.518 0.227,-0.525C0.246,-0.532 0.267,-0.535 0.291,-0.535C0.329,-0.535 0.36,-0.527 0.384,-0.51C0.407,-0.494 0.425,-0.468 0.438,-0.433C0.458,-0.469 0.481,-0.494 0.508,-0.511C0.535,-0.527 0.568,-0.535 0.606,-0.535C0.634,-0.535 0.66,-0.53 0.683,-0.519C0.707,-0.509 0.725,-0.494 0.739,-0.475C0.75,-0.46 0.758,-0.444 0.763,-0.427C0.767,-0.41 0.769,-0.387 0.769,-0.358L0.769,-0L0.706,-0L0.706,-0.341C0.706,-0.365 0.705,-0.384 0.702,-0.398C0.699,-0.412 0.695,-0.424 0.689,-0.432C0.681,-0.447 0.667,-0.459 0.649,-0.467C0.631,-0.476 0.611,-0.48 0.589,-0.48C0.561,-0.48 0.536,-0.473 0.514,-0.46C0.493,-0.447 0.476,-0.429 0.465,-0.405C0.459,-0.392 0.455,-0.377 0.452,-0.36C0.45,-0.343 0.448,-0.323 0.448,-0.299L0.448,-0L0.385,-0L0.385,-0.339C0.385,-0.379 0.38,-0.409 0.371,-0.427C0.363,-0.443 0.351,-0.456 0.334,-0.466C0.317,-0.475 0.297,-0.48 0.274,-0.48C0.245,-0.48 0.22,-0.473 0.197,-0.459C0.174,-0.445 0.157,-0.424 0.145,-0.398C0.133,-0.373 0.127,-0.335 0.127,-0.286L0.127,-0L0.064,-0L0.064,-0.52L0.127,-0.52Z" style="fill:white;fill-rule:nonzero;"/>
            </g>
            <g transform="matrix(267.438,0,0,267.438,655.715,1104.75)">
                <path d="M0.127,-0.52L0.127,-0.431C0.142,-0.455 0.157,-0.474 0.174,-0.49C0.19,-0.506 0.208,-0.518 0.227,-0.525C0.246,-0.532 0.267,-0.535 0.291,-0.535C0.329,-0.535 0.36,-0.527 0.384,-0.51C0.407,-0.494 0.425,-0.468 0.438,-0.433C0.458,-0.469 0.481,-0.494 0.508,-0.511C0.535,-0.527 0.568,-0.535 0.606,-0.535C0.634,-0.535 0.66,-0.53 0.683,-0.519C0.707,-0.509 0.725,-0.494 0.739,-0.475C0.75,-0.46 0.758,-0.444 0.763,-0.427C0.767,-0.41 0.769,-0.387 0.769,-0.358L0.769,-0L0.706,-0L0.706,-0.341C0.706,-0.365 0.705,-0.384 0.702,-0.398C0.699,-0.412 0.695,-0.424 0.689,-0.432C0.681,-0.447 0.667,-0.459 0.649,-0.467C0.631,-0.476 0.611,-0.48 0.589,-0.48C0.561,-0.48 0.536,-0.473 0.514,-0.46C0.493,-0.447 0.476,-0.429 0.465,-0.405C0.459,-0.392 0.455,-0.377 0.452,-0.36C0.45,-0.343 0.448,-0.323 0.448,-0.299L0.448,-0L0.385,-0L0.385,-0.339C0.385,-0.379 0.38,-0.409 0.371,-0.427C0.363,-0.443 0.351,-0.456 0.334,-0.466C0.317,-0.475 0.297,-0.48 0.274,-0.48C0.245,-0.48 0.22,-0.473 0.197,-0.459C0.174,-0.445 0.157,-0.424 0.145,-0.398C0.133,-0.373 0.127,-0.335 0.127,-0.286L0.127,-0L0.064,-0L0.064,-0.52L0.127,-0.52Z" style="fill:white;fill-rule:nonzero;"/>
            </g>
            <g transform="matrix(267.438,0,0,267.438,878.493,1104.75)">
                <path d="M0.445,-0.171L0.505,-0.171C0.499,-0.137 0.488,-0.108 0.472,-0.083C0.431,-0.018 0.367,0.015 0.282,0.015C0.247,0.015 0.215,0.009 0.186,-0.004C0.157,-0.016 0.131,-0.035 0.11,-0.059C0.089,-0.083 0.073,-0.112 0.062,-0.144C0.05,-0.177 0.045,-0.214 0.045,-0.254C0.045,-0.294 0.051,-0.331 0.062,-0.366C0.073,-0.401 0.09,-0.431 0.112,-0.457C0.133,-0.482 0.158,-0.502 0.187,-0.515C0.215,-0.528 0.247,-0.535 0.281,-0.535C0.312,-0.535 0.34,-0.53 0.367,-0.519C0.393,-0.508 0.416,-0.493 0.437,-0.472C0.457,-0.452 0.473,-0.427 0.486,-0.398C0.503,-0.36 0.511,-0.308 0.511,-0.244L0.109,-0.244C0.111,-0.204 0.115,-0.173 0.122,-0.153C0.136,-0.116 0.156,-0.088 0.184,-0.068C0.211,-0.048 0.244,-0.038 0.282,-0.038C0.369,-0.038 0.423,-0.082 0.445,-0.171ZM0.109,-0.297L0.447,-0.297C0.446,-0.325 0.441,-0.35 0.432,-0.374C0.424,-0.397 0.412,-0.417 0.398,-0.433C0.384,-0.449 0.366,-0.461 0.346,-0.469C0.326,-0.478 0.304,-0.482 0.28,-0.482C0.232,-0.482 0.193,-0.466 0.164,-0.435C0.135,-0.403 0.117,-0.357 0.109,-0.297Z" style="fill:white;fill-rule:nonzero;"/>
            </g>
            <g transform="matrix(267.438,0,0,267.438,1027.23,1104.75)">
                <path d="M0.306,-0.528L0.306,-0.464L0.292,-0.464C0.244,-0.464 0.205,-0.444 0.177,-0.406C0.162,-0.385 0.152,-0.361 0.146,-0.334C0.141,-0.307 0.138,-0.267 0.138,-0.213L0.138,-0L0.075,-0L0.075,-0.52L0.134,-0.52L0.134,-0.404C0.146,-0.434 0.161,-0.458 0.176,-0.477C0.191,-0.495 0.209,-0.508 0.23,-0.516C0.25,-0.524 0.276,-0.528 0.306,-0.528Z" style="fill:white;fill-rule:nonzero;"/>
            </g>
            <g transform="matrix(267.438,0,0,267.438,1116.29,1104.75)">
                <path d="M0.436,-0.369L0.374,-0.369C0.37,-0.408 0.358,-0.436 0.336,-0.455C0.315,-0.473 0.284,-0.482 0.243,-0.482C0.205,-0.482 0.176,-0.474 0.155,-0.459C0.134,-0.444 0.124,-0.423 0.124,-0.396C0.124,-0.377 0.128,-0.363 0.135,-0.352C0.142,-0.342 0.156,-0.333 0.176,-0.325C0.197,-0.317 0.227,-0.308 0.267,-0.298C0.301,-0.29 0.328,-0.283 0.349,-0.275C0.369,-0.267 0.387,-0.258 0.401,-0.248C0.417,-0.238 0.43,-0.223 0.439,-0.205C0.449,-0.186 0.454,-0.166 0.454,-0.144C0.454,-0.112 0.446,-0.085 0.429,-0.06C0.412,-0.036 0.388,-0.017 0.357,-0.004C0.326,0.009 0.291,0.015 0.25,0.015C0.174,0.015 0.117,-0.009 0.08,-0.058C0.068,-0.074 0.06,-0.091 0.055,-0.107C0.049,-0.124 0.047,-0.145 0.046,-0.17L0.108,-0.17C0.111,-0.136 0.118,-0.109 0.131,-0.09C0.143,-0.074 0.16,-0.061 0.181,-0.052C0.202,-0.043 0.226,-0.038 0.253,-0.038C0.294,-0.038 0.327,-0.047 0.352,-0.065C0.377,-0.084 0.39,-0.108 0.39,-0.137C0.39,-0.164 0.381,-0.185 0.362,-0.199C0.343,-0.213 0.306,-0.227 0.252,-0.24C0.215,-0.249 0.191,-0.256 0.178,-0.259C0.166,-0.263 0.155,-0.266 0.146,-0.27C0.137,-0.274 0.127,-0.278 0.117,-0.284C0.099,-0.294 0.085,-0.309 0.075,-0.327C0.065,-0.345 0.06,-0.366 0.06,-0.388C0.06,-0.418 0.068,-0.444 0.083,-0.466C0.097,-0.488 0.119,-0.505 0.147,-0.517C0.175,-0.529 0.207,-0.535 0.244,-0.535C0.279,-0.535 0.309,-0.53 0.336,-0.52C0.363,-0.509 0.385,-0.494 0.401,-0.474C0.412,-0.461 0.421,-0.446 0.426,-0.431C0.431,-0.416 0.434,-0.395 0.436,-0.369Z" style="fill:white;fill-rule:nonzero;"/>
            </g>
            <g transform="matrix(267.438,0,0,267.438,1250.01,1104.75)">
                <path d="M0.445,-0.171L0.505,-0.171C0.499,-0.137 0.488,-0.108 0.472,-0.083C0.431,-0.018 0.367,0.015 0.282,0.015C0.247,0.015 0.215,0.009 0.186,-0.004C0.157,-0.016 0.131,-0.035 0.11,-0.059C0.089,-0.083 0.073,-0.112 0.062,-0.144C0.05,-0.177 0.045,-0.214 0.045,-0.254C0.045,-0.294 0.051,-0.331 0.062,-0.366C0.073,-0.401 0.09,-0.431 0.112,-0.457C0.133,-0.482 0.158,-0.502 0.187,-0.515C0.215,-0.528 0.247,-0.535 0.281,-0.535C0.312,-0.535 0.34,-0.53 0.367,-0.519C0.393,-0.508 0.416,-0.493 0.437,-0.472C0.457,-0.452 0.473,-0.427 0.486,-0.398C0.503,-0.36 0.511,-0.308 0.511,-0.244L0.109,-0.244C0.111,-0.204 0.115,-0.173 0.122,-0.153C0.136,-0.116 0.156,-0.088 0.184,-0.068C0.211,-0.048 0.244,-0.038 0.282,-0.038C0.369,-0.038 0.423,-0.082 0.445,-0.171ZM0.109,-0.297L0.447,-0.297C0.446,-0.325 0.441,-0.35 0.432,-0.374C0.424,-0.397 0.412,-0.417 0.398,-0.433C0.384,-0.449 0.366,-0.461 0.346,-0.469C0.326,-0.478 0.304,-0.482 0.28,-0.482C0.232,-0.482 0.193,-0.466 0.164,-0.435C0.135,-0.403 0.117,-0.357 0.109,-0.297Z" style="fill:white;fill-rule:nonzero;"/>
            </g>
        </g>
    </g>
</svg>
